<?xml version="1.0" encoding="UTF-8"?>
<svg xmlns="http://www.w3.org/2000/svg" xmlns:xlink="http://www.w3.org/1999/xlink" width="px" height="400px" viewBox="0 0 347 400" version="1.1">
<g id="surface1">
<path style=" stroke:none;fill-rule:evenodd;fill:rgb(32.156863%,69.019608%,90.588235%);fill-opacity:1;" d="M 173.496094 58.132812 L 297.367188 128.546875 L 346.996094 99.914062 L 173.949219 0.109375 L 0.03125 99.914062 L 49.65625 128.546875 L 173.488281 58.132812 "/>
<path style=" stroke:none;fill-rule:evenodd;fill:rgb(23.529412%,46.27451%,76.470588%);fill-opacity:1;" d="M 0.90625 100.453125 L 50.980469 129.335938 L 50.980469 272.238281 L 173.5 342.929688 L 173.5 399.625 L 0.00390625 300.078125 L 0.910156 100.449219 "/>
<path style=" stroke:none;fill-rule:evenodd;fill:rgb(18.039216%,61.568627%,30.196078%);fill-opacity:1;" d="M 125.5 172.277344 L 173.734375 200.09375 L 173.734375 256.785156 L 148.722656 242.347656 L 125.507812 228.957031 L 125.5 172.277344 "/>
<path style=" stroke:none;fill-rule:evenodd;fill:rgb(14.509804%,43.529412%,26.666667%);fill-opacity:1;" d="M 222.859375 171.75 L 173.734375 200.085938 L 173.734375 256.773438 L 221.957031 228.945312 L 222.859375 171.75 "/>
<path style=" stroke:none;fill-rule:evenodd;fill:rgb(18.039216%,23.137255%,41.176471%);fill-opacity:1;" d="M 346.101562 100.453125 L 296.027344 129.335938 L 296.027344 270.660156 L 236.121094 306.785156 L 173.503906 342.929688 L 173.503906 399.625 L 173.957031 399.886719 L 346.261719 300.503906 L 346.105469 100.445312 "/>
<path style=" stroke:none;fill-rule:evenodd;fill:rgb(62.352941%,83.921569%,16.862745%);fill-opacity:1;" d="M 173.726562 200.085938 L 125.492188 172.265625 L 125.492188 171.921875 L 173.726562 144.101562 L 174.320312 143.757812 L 198.730469 157.84375 L 222.851562 171.75 L 173.722656 200.085938 "/>
<path style=" stroke:none;fill-rule:evenodd;fill:rgb(23.529412%,46.27451%,76.470588%);fill-opacity:1;" d="M 64.164062 206.316406 L 112.398438 234.136719 L 112.398438 290.824219 L 87.386719 276.382812 L 64.175781 262.996094 L 64.164062 206.316406 "/>
<path style=" stroke:none;fill-rule:evenodd;fill:rgb(18.039216%,23.137255%,41.176471%);fill-opacity:1;" d="M 160.628906 206.316406 L 112.402344 234.136719 L 112.402344 290.824219 L 160.628906 262.992188 L 160.636719 206.316406 "/>
<path style=" stroke:none;fill-rule:evenodd;fill:rgb(32.156863%,69.019608%,90.588235%);fill-opacity:1;" d="M 112.398438 234.136719 L 64.167969 206.320312 L 88.578125 191.894531 L 112.398438 178.152344 L 160.632812 206.320312 L 112.398438 234.136719 "/>
<path style=" stroke:none;fill-rule:evenodd;fill:rgb(23.529412%,46.27451%,76.470588%);fill-opacity:1;" d="M 188.292969 207.769531 L 236.523438 235.59375 L 236.523438 292.28125 L 211.511719 277.839844 L 188.300781 264.453125 L 188.289062 207.769531 "/>
<path style=" stroke:none;fill-rule:evenodd;fill:rgb(18.039216%,23.137255%,41.176471%);fill-opacity:1;" d="M 284.761719 207.769531 L 236.53125 235.59375 L 236.53125 292.28125 L 284.757812 264.453125 L 284.761719 207.769531 "/>
<path style=" stroke:none;fill-rule:evenodd;fill:rgb(32.156863%,69.019608%,90.588235%);fill-opacity:1;" d="M 236.519531 235.589844 L 188.292969 207.777344 L 188.292969 207.433594 L 212.703125 193.355469 L 236.523438 179.613281 L 284.757812 207.777344 L 236.519531 235.589844 "/>
<path style=" stroke:none;fill-rule:evenodd;fill:rgb(23.529412%,46.27451%,76.470588%);fill-opacity:1;" d="M 127.445312 243.519531 L 175.675781 271.339844 L 175.675781 328.03125 L 150.667969 313.589844 L 127.453125 300.203125 L 127.445312 243.519531 "/>
<path style=" stroke:none;fill-rule:evenodd;fill:rgb(18.039216%,23.137255%,41.176471%);fill-opacity:1;" d="M 223.914062 243.519531 L 175.679688 271.339844 L 175.679688 328.03125 L 223.90625 300.203125 L 223.910156 243.519531 "/>
<path style=" stroke:none;fill-rule:evenodd;fill:rgb(32.156863%,69.019608%,90.588235%);fill-opacity:1;" d="M 175.679688 271.332031 L 127.453125 243.519531 L 127.453125 243.175781 L 151.867188 229.097656 L 175.679688 215.355469 L 223.917969 243.519531 L 175.679688 271.339844 "/>
<path style=" stroke:none;fill-rule:evenodd;fill:rgb(23.529412%,46.27451%,76.470588%);fill-opacity:1;" d="M 125.5 96.476562 L 173.734375 124.296875 L 173.734375 180.984375 L 148.722656 166.542969 L 125.507812 153.15625 L 125.5 96.476562 "/>
<path style=" stroke:none;fill-rule:evenodd;fill:rgb(18.039216%,23.137255%,41.176471%);fill-opacity:1;" d="M 222.859375 95.964844 L 173.734375 124.296875 L 173.734375 180.984375 L 221.957031 153.152344 L 222.859375 95.964844 "/>
<path style=" stroke:none;fill-rule:evenodd;fill:rgb(32.156863%,69.019608%,90.588235%);fill-opacity:1;" d="M 173.726562 124.296875 L 125.492188 96.476562 L 125.492188 96.136719 L 173.726562 68.3125 L 174.320312 67.96875 L 198.730469 82.054688 L 222.851562 95.964844 L 173.722656 124.296875 "/>
<path style=" stroke:none;fill-rule:evenodd;fill:rgb(23.529412%,46.27451%,76.470588%);fill-opacity:1;" d="M 64.164062 130.527344 L 112.398438 158.34375 L 112.398438 215.035156 L 87.386719 200.597656 L 64.175781 187.207031 L 64.164062 130.527344 "/>
<path style=" stroke:none;fill-rule:evenodd;fill:rgb(18.039216%,23.137255%,41.176471%);fill-opacity:1;" d="M 160.628906 130.527344 L 112.398438 158.34375 L 112.398438 215.035156 L 160.625 187.207031 L 160.632812 130.527344 "/>
<path style=" stroke:none;fill-rule:evenodd;fill:rgb(32.156863%,69.019608%,90.588235%);fill-opacity:1;" d="M 112.398438 158.347656 L 64.167969 130.53125 L 88.578125 116.109375 L 112.398438 102.363281 L 160.632812 130.53125 L 112.398438 158.347656 "/>
<path style=" stroke:none;fill-rule:evenodd;fill:rgb(23.529412%,46.27451%,76.470588%);fill-opacity:1;" d="M 188.292969 131.984375 L 236.523438 159.804688 L 236.523438 216.496094 L 211.511719 202.054688 L 188.300781 188.660156 L 188.289062 131.984375 "/>
<path style=" stroke:none;fill-rule:evenodd;fill:rgb(18.039216%,23.137255%,41.176471%);fill-opacity:1;" d="M 284.761719 131.984375 L 236.53125 159.804688 L 236.53125 216.496094 L 284.757812 188.660156 L 284.761719 131.984375 "/>
<path style=" stroke:none;fill-rule:evenodd;fill:rgb(32.156863%,69.019608%,90.588235%);fill-opacity:1;" d="M 236.519531 159.804688 L 188.292969 131.984375 L 188.292969 131.648438 L 212.703125 117.5625 L 236.523438 103.820312 L 284.757812 131.984375 L 236.523438 159.804688 "/>
<path style=" stroke:none;fill-rule:evenodd;fill:rgb(23.529412%,46.27451%,76.470588%);fill-opacity:1;" d="M 127.445312 167.734375 L 175.675781 195.550781 L 175.675781 252.238281 L 150.667969 237.800781 L 127.453125 224.414062 L 127.445312 167.734375 "/>
<path style=" stroke:none;fill-rule:evenodd;fill:rgb(18.039216%,23.137255%,41.176471%);fill-opacity:1;" d="M 223.914062 167.734375 L 175.679688 195.550781 L 175.679688 252.238281 L 223.90625 224.410156 L 223.910156 167.734375 "/>
<path style=" stroke:none;fill-rule:evenodd;fill:rgb(32.156863%,69.019608%,90.588235%);fill-opacity:1;" d="M 175.679688 195.539062 L 127.453125 167.722656 L 127.453125 167.386719 L 151.867188 153.300781 L 175.679688 139.554688 L 223.917969 167.722656 L 175.679688 195.539062 "/>
</g>
</svg>
